<svg width="81" height="81" viewBox="0 0 81 81" fill="none" xmlns="http://www.w3.org/2000/svg">
<path d="M27.0103 19.8664C26.9198 19.9569 27.4125 20.3831 27.482 20.4322C27.6468 20.5496 27.8408 20.6194 28.0426 20.6338C28.2445 20.6482 28.4464 20.6067 28.6262 20.5139C28.806 20.4211 28.9567 20.2805 29.0619 20.1076C29.167 19.9347 29.2225 19.7362 29.2221 19.5338C29.2122 19.2725 29.1155 19.022 28.9474 18.8217C28.7792 18.6215 28.5492 18.4829 28.2936 18.4279C28.387 18.0463 28.3384 17.6437 28.1569 17.2953C27.9753 16.9469 27.6732 16.6764 27.307 16.5344C26.9407 16.3923 26.5352 16.3883 26.1662 16.5231C25.7972 16.658 25.4899 16.9225 25.3016 17.2673C24.8077 16.8503 24.1839 16.6185 23.5376 16.6116C22.8913 16.6047 22.2628 16.8232 21.7601 17.2295C21.2575 17.6358 20.912 18.2045 20.7832 18.8379C20.6544 19.4712 20.7503 20.1297 21.0544 20.7C20.6222 20.5261 20.1446 20.4999 19.696 20.6253C19.2473 20.7508 18.8527 21.021 18.5734 21.3939C18.2941 21.7669 18.1459 22.2216 18.1517 22.6874C18.1576 23.1533 18.3172 23.6042 18.6057 23.97C18.2474 23.9273 17.8841 23.9634 17.5412 24.0758C17.1983 24.1882 16.8842 24.3741 16.6207 24.6206C16.2711 24.9171 15.9934 25.2891 15.8086 25.7086C15.6238 26.128 15.5366 26.584 15.5537 27.042C15.5976 28.1411 16.5973 29.4493 17.6884 29.3846C18.9151 29.1447 20.1251 28.8264 21.311 28.4314C21.6638 28.3402 21.9841 28.1524 22.2359 27.8889C23.0668 26.8635 23.2839 24.7015 23.2815 23.5055C23.2815 22.9686 23.1798 22.4373 23.1697 21.9073C23.4264 21.9051 23.6793 21.8446 23.9092 21.7303C24.1391 21.616 24.34 21.4511 24.4968 21.2478C24.7678 20.881 24.8985 20.4294 24.8652 19.9746C25.1735 20.2234 25.5627 20.3499 25.9584 20.33C26.3541 20.31 26.7286 20.145 27.0103 19.8664Z" fill="#89C7FF"/>
<path d="M29.1291 26.5449C28.6655 25.8626 28.0858 25.2668 27.4164 24.7847C27.4674 24.8217 26.8131 25.388 26.7468 25.431C26.5425 25.5689 26.1753 25.6353 26.0269 25.8295C25.9189 26.0699 25.8706 26.3329 25.8862 26.596C25.8425 26.9909 25.8108 27.3879 25.7913 27.7868C26.8393 27.7371 27.8815 27.6008 28.9071 27.3794C29.2864 27.3328 29.4633 27.0247 29.1291 26.5449Z" fill="#89C7FF"/>
<path d="M60.0516 17.172C60.6607 17.4991 61.1788 17.9728 61.5591 18.5503C61.9393 19.1278 62.1698 19.7908 62.2297 20.4797C62.2319 20.5283 62.2529 20.5743 62.2881 20.6079C62.3233 20.6416 62.3702 20.6604 62.4189 20.6604C62.4676 20.6604 62.5145 20.6416 62.5497 20.6079C62.585 20.5743 62.6059 20.5283 62.6081 20.4797C62.6012 19.7165 62.3666 18.9727 61.9343 18.3436C61.5021 17.7146 60.8919 17.2289 60.1819 16.9488C60.0339 16.8904 59.9 17.0959 60.0516 17.172Z" fill="#89C7FF"/>
<path d="M63.6705 20.0441C63.7002 19.7337 63.7032 19.4213 63.6794 19.1103C63.6609 18.859 63.2704 18.8558 63.2857 19.1103C63.3035 19.4363 63.3498 19.76 63.424 20.0779C63.4598 20.2243 63.6572 20.1772 63.6705 20.0441Z" fill="#89C7FF"/>
<path d="M49.0948 33.2581C48.7377 32.856 47.3073 32.0263 46.5649 30.957C44.2871 27.675 43.5821 23.7693 43.5721 19.7727C43.5841 19.7671 44.7383 18.9475 45.5539 18.9101C46.1152 18.895 46.6711 19.0226 47.1697 19.2809C47.1521 19.7818 47.2054 20.2828 47.3282 20.7688C47.9716 24.3613 49.7761 28.3868 53.338 29.1642C53.3556 29.1691 53.3741 29.1704 53.3923 29.1682C53.4105 29.1659 53.428 29.1601 53.444 29.1511C53.4599 29.1421 53.4739 29.13 53.4852 29.1155C53.4965 29.1011 53.5048 29.0845 53.5097 29.0669C53.5146 29.0492 53.5159 29.0307 53.5137 29.0126C53.5114 28.9944 53.5056 28.9768 53.4966 28.9608C53.4876 28.9449 53.4755 28.9309 53.461 28.9196C53.4466 28.9083 53.43 28.9 53.4124 28.8951C51.5972 28.1376 50.1278 26.7332 49.2891 24.954C47.8723 22.1036 47.9487 20.1861 47.5715 19.1522C47.4046 18.6945 46.0775 18.3052 45.459 18.3398C44.8063 18.3764 43.3621 19.0717 43.2918 19.313C42.4955 22.0509 43.2982 25.2026 44.2875 27.8423C44.7755 29.1289 45.425 30.3483 46.2203 31.4713C47.1114 32.7409 48.4084 33.5987 48.9388 33.6241C48.9814 33.6246 49.0232 33.6124 49.0589 33.5892C49.0946 33.5659 49.1226 33.5325 49.1393 33.4933C49.156 33.4541 49.1607 33.4108 49.1528 33.369C49.1449 33.3271 49.1247 33.2885 49.0948 33.2581Z" fill="#89C7FF"/>
<path d="M53.4426 29.2076C52.8104 30.1844 53.6002 31.6374 54.6703 31.8735C55.7139 32.1039 57.0865 31.6237 57.411 30.5343C57.4681 30.3425 57.189 30.1579 57.0551 30.328C56.8237 30.666 56.5076 30.9371 56.1384 31.1144C55.7691 31.2916 55.3598 31.3687 54.9514 31.3378C53.8946 31.2148 53.6778 30.1744 53.745 29.2868C53.7578 29.1195 53.523 29.0833 53.4426 29.2076Z" fill="#89C7FF"/>
<path d="M69.7014 44.0463C69.5538 41.503 69.3097 39.5615 68.1478 37.089C66.8569 34.3407 64.8289 31.6197 62.1819 30.0465C60.821 29.2374 59.2039 28.7942 57.6488 29.2551C57.494 29.3009 57.5149 29.5611 57.689 29.5474C61.5694 29.2462 64.6061 32.2961 66.532 35.3437C68.4096 38.3176 68.9123 40.5314 69.0897 43.6646C69.0945 44.6193 69.1733 45.5722 69.3253 46.5147C69.3804 46.7701 69.7355 46.6888 69.756 46.4556C69.7964 45.6522 69.7781 44.847 69.7014 44.0463Z" fill="#89C7FF"/>
<path d="M68.9593 46.4178C68.4758 46.5402 67.981 46.6127 67.4826 46.6341C67.2361 46.6265 66.9305 46.5227 66.6614 46.5227C66.5665 44.7553 65.358 41.9141 64.2887 40.1973C63.1189 38.318 61.5476 36.4214 59.5751 35.3521C59.4355 35.2761 59.2783 35.4635 59.401 35.5753L59.4231 35.5974C59.3999 35.6119 59.3809 35.632 59.3676 35.6558C59.3544 35.6797 59.3475 35.7065 59.3475 35.7338C59.2694 40.114 60.761 44.4802 62.9483 48.1889C63.1695 48.5641 63.4245 49.2059 63.8303 49.4009C63.8632 49.417 63.8996 49.4248 63.9362 49.4235C63.9729 49.4223 64.0086 49.412 64.0404 49.3937C64.0722 49.3754 64.0989 49.3496 64.1184 49.3186C64.1379 49.2875 64.1494 49.2521 64.152 49.2156C64.1363 48.7893 63.747 48.3895 63.5335 48.0316C61.4946 44.6133 59.7532 39.8389 59.6845 35.8439C62.1432 38.1797 63.9473 40.0002 65.2611 43.4627C65.6565 44.5047 65.827 45.5829 66.1459 46.6398C66.1462 46.6934 66.1614 46.7459 66.1898 46.7914C66.2182 46.8369 66.2587 46.8737 66.3067 46.8975C67.2007 47.2547 68.5186 47.4264 69.1693 46.7717C69.3289 46.6124 69.1556 46.3856 68.9593 46.4178Z" fill="#89C7FF"/>
<path d="M63.5265 49.3338C62.094 50.0657 61.2555 51.3446 58.0874 51.5424C55.9158 51.6771 53.6492 51.5066 51.6405 50.6263C51.6405 50.6126 50.7211 49.1239 50.1525 46.0639C48.7671 38.6325 49.4825 36.2916 50.4404 31.6748C50.4706 31.5309 50.2502 31.4122 50.1851 31.5634C49.5823 33.0848 49.1899 34.6814 49.0188 36.3089C48.5905 39.5873 48.7772 42.917 49.5694 46.127C49.9613 47.7346 50.5088 49.3002 51.2041 50.8017C53.132 52.2454 55.9869 52.2731 58.2961 52.1139C59.3547 52.0468 60.392 51.7866 61.3569 51.3462C62.1564 50.9762 63.3677 50.4124 63.7698 49.5731C63.7891 49.5392 63.7966 49.5 63.7912 49.4614C63.7859 49.4229 63.7679 49.3872 63.7402 49.3599C63.7124 49.3326 63.6764 49.3152 63.6378 49.3105C63.5991 49.3058 63.56 49.314 63.5265 49.3338Z" fill="#89C7FF"/>
<path d="M39.9307 2.15876C39.8756 1.91747 39.5434 1.99469 39.5245 2.21466C39.4212 3.40665 39.6758 4.68952 39.8463 5.86944C40.0258 7.12961 40.272 8.37938 40.5838 9.61349C40.6409 9.83668 40.9655 9.74057 40.9277 9.51858C39.977 3.92824 40.3059 3.79633 39.9307 2.15876Z" fill="#89C7FF"/>
<path d="M44.2394 8.99739C46.405 6.60699 47.8274 5.38042 48.536 4.49327C48.6615 4.33643 48.4994 4.04889 48.3003 4.18844C46.8679 5.19382 45.0296 7.40566 43.9671 8.78626C43.8469 8.9439 44.1079 9.14257 44.2394 8.99739Z" fill="#89C7FF"/>
<path d="M47.1653 9.24189C48.4968 8.6656 49.9804 8.17658 51.1772 7.34453C51.3505 7.22388 51.2512 6.911 51.0244 6.98259C49.6337 7.43179 48.3352 8.30326 47.0704 9.01909C46.955 9.08625 47.033 9.29899 47.1653 9.24189Z" fill="#89C7FF"/>
<path d="M35.9122 7.73864C35.2672 6.84293 34.5555 5.99721 33.7832 5.20869C33.7471 5.17635 33.7007 5.15773 33.6522 5.15605C33.6038 5.15438 33.5563 5.16977 33.518 5.19953C33.4797 5.2293 33.4531 5.27156 33.4427 5.31895C33.4324 5.36633 33.439 5.41583 33.4615 5.45883C34.0467 6.33186 34.6976 7.15895 35.4087 7.93288C36.1101 8.78384 36.8327 9.60745 37.5546 10.4459C37.6885 10.6012 37.97 10.3888 37.8425 10.2227C37.2043 9.39149 36.5717 8.55622 35.9122 7.73864Z" fill="#89C7FF"/>
<path d="M34.7625 11.7996C33.5919 11.0709 32.2887 10.581 30.928 10.3579C30.7486 10.3341 30.7374 10.6036 30.8878 10.6579C32.1478 11.0613 33.3758 11.5587 34.5614 12.1458C34.6069 12.1668 34.6586 12.1701 34.7063 12.155C34.7541 12.14 34.7945 12.1076 34.8197 12.0643C34.8448 12.021 34.8529 11.9698 34.8423 11.9209C34.8317 11.8719 34.8033 11.8287 34.7625 11.7996Z" fill="#89C7FF"/>
<path d="M12.9009 76.4683C12.3206 76.3476 11.9213 76.5519 11.3776 76.1236C10.5789 75.4947 9.70141 73.3866 9.17017 72.6249C9.08169 72.4982 8.85689 72.5706 8.90676 72.7367C9.10502 73.399 10.2375 76.3561 11.6253 76.9505C11.9688 77.0357 12.3242 77.0621 12.6765 77.0285C12.8909 77.2062 10.6408 77.8798 10.2234 77.8601C9.67412 77.7983 9.12894 77.7043 8.59067 77.5786C7.46866 76.6694 6.47011 75.0048 5.78404 73.7373C5.96943 72.3144 6.23887 72.0289 5.98511 71.973C5.95843 71.9673 5.93066 71.9698 5.90542 71.9802C5.88017 71.9905 5.85862 72.0082 5.84355 72.0309C5.65776 72.3068 5.27531 73.4441 5.41727 73.6572C5.63942 74.5581 6.04055 75.4051 6.59679 76.1478C7.03916 76.7405 7.86076 78.177 10.0227 78.4087C11.0752 78.5217 13.1724 77.8179 13.3839 77.5875C13.7845 77.1503 13.4089 76.5728 12.9009 76.4683Z" fill="#89C7FF"/>
<path d="M16.6741 19.7264C16.8677 18.9187 17.1939 18.1486 17.6392 17.4474C18.1194 16.7751 18.6632 16.1506 19.2631 15.5826C19.2919 15.5528 19.309 15.5136 19.3113 15.4722C19.3136 15.4308 19.301 15.39 19.2757 15.3571C19.2504 15.3243 19.2141 15.3016 19.1735 15.2932C19.1329 15.2849 19.0906 15.2914 19.0544 15.3116C17.5729 16.1529 16.6817 18.0318 16.3403 19.6303C16.2932 19.8511 16.6218 19.944 16.6741 19.7264Z" fill="#89C7FF"/>
<path d="M16.2067 16.2201C15.5724 16.8935 15.1931 17.7672 15.1342 18.6905C15.1101 18.9036 15.441 18.8984 15.4692 18.6905C15.6281 17.8674 15.9637 17.0886 16.4529 16.4079C16.4711 16.375 16.4769 16.3367 16.4692 16.2999C16.4615 16.2632 16.4408 16.2304 16.411 16.2076C16.3811 16.1848 16.344 16.1735 16.3065 16.1758C16.269 16.1781 16.2336 16.1938 16.2067 16.2201Z" fill="#89C7FF"/>
<path d="M55.3066 25.5428C55.7562 25.4668 56.0272 24.9452 55.7357 24.8728C55.5937 24.8374 55.5704 24.9798 55.1835 25.0972C55.0266 25.1253 54.8663 25.1295 54.7082 25.1097C54.6674 25.1102 54.6285 25.1268 54.5998 25.1559C54.5712 25.1849 54.5553 25.2241 54.5554 25.2649C54.5566 25.4185 54.8787 25.6409 55.3066 25.5428Z" fill="#A0A0A0"/>
<path d="M54.3844 27.1196C54.2919 27.307 53.936 28.4423 53.8214 28.8115C53.7748 28.9595 54.0056 29.0616 54.076 28.9229C54.2493 28.5806 54.7681 27.5234 54.8324 27.3304C55.9866 27.7072 57.1706 26.9391 57.2924 26.0571C57.3133 25.9031 57.1211 25.7229 56.992 25.8818C56.585 26.3829 56.1973 26.8787 55.4823 26.8695C55.156 26.8615 54.8397 26.7553 54.5746 26.5648C54.3096 26.3742 54.1082 26.1082 53.9968 25.8014C53.5274 24.6279 53.8033 23.2332 54.269 22.1068C54.3092 22.005 54.1576 21.9596 54.1029 22.0364C53.0521 23.5063 52.851 26.1967 54.3844 27.1196Z" fill="#A0A0A0"/>
<path d="M54.8538 23.1238C54.9342 23.0309 54.83 22.8689 54.7154 22.9441C54.3623 23.1753 53.8709 23.559 53.8709 24.0355C53.8709 24.4003 54.3829 24.7892 54.6812 24.4562C54.7044 24.4305 54.7173 24.3971 54.7173 24.3625C54.7173 24.3279 54.7044 24.2945 54.6812 24.2688C54.5095 24.0761 54.2276 24.1147 54.4054 23.7862C54.5306 23.5499 54.6809 23.3278 54.8538 23.1238Z" fill="#A0A0A0"/>
<path d="M55.7135 22.6412C55.6785 22.6261 55.6392 22.6243 55.603 22.6362C55.5668 22.6482 55.5363 22.673 55.5172 22.706C55.442 22.795 55.3804 22.8946 55.3342 23.0016C55.3175 23.0478 55.3198 23.0988 55.3406 23.1433C55.3614 23.1879 55.3991 23.2224 55.4452 23.2392C55.855 23.3116 55.8643 22.7076 55.7135 22.6412Z" fill="#A0A0A0"/>
<path d="M56.0919 23.006C56.1016 23.0365 56.1198 23.0636 56.1443 23.0842C56.1688 23.1048 56.1987 23.118 56.2304 23.1222C56.2621 23.1264 56.2944 23.1215 56.3234 23.108C56.3525 23.0946 56.3771 23.0731 56.3944 23.0462C56.451 22.9285 56.4764 22.7981 56.468 22.6677C56.4597 22.5374 56.4178 22.4113 56.3465 22.3018C56.2981 22.1856 56.2167 22.0861 56.1123 22.0157C56.008 21.9453 55.8853 21.9071 55.7594 21.9057C55.7283 21.9065 55.6985 21.9183 55.6754 21.939C55.6522 21.9598 55.6372 21.9881 55.6331 22.0189C55.6289 22.0496 55.6359 22.0809 55.6527 22.1071C55.6695 22.1332 55.695 22.1525 55.7248 22.1615C55.8708 22.2041 55.9705 22.4357 56.0095 22.5677C56.0485 22.6996 56.036 22.8652 56.0919 23.006Z" fill="#A0A0A0"/>
<path d="M56.9916 21.5365C56.8211 22.4655 57.5241 24.0367 58.6609 23.9647C58.145 24.6762 57.7815 25.4866 57.5932 26.3451C57.306 27.2351 57.2344 28.1807 57.3845 29.1038C57.4211 29.2824 57.66 29.2152 57.6777 29.0636C57.7485 28.1622 57.9059 27.2698 58.1478 26.3986C58.3223 25.8227 59.4709 24.1767 59.904 22.8375C60.0395 22.3457 60.0255 21.8248 59.8638 21.3411C59.76 21.0197 59.5437 20.7465 59.2548 20.5716C58.9658 20.3968 58.6234 20.332 58.2906 20.3892C58.1373 19.7598 57.1766 19.2382 56.2536 19.609C55.9424 19.0633 55.1735 18.9418 54.5618 18.9655C53.7876 18.9965 53.3553 19.6629 53.3344 20.3972C53.2854 22.081 55.7071 21.9174 56.9916 21.5365Z" fill="#A0A0A0"/>
<path d="M43.7249 18.2923C42.767 18.1894 42.7658 16.8168 42.7505 16.1014C42.7344 15.3293 42.954 14.5841 42.9492 13.8196C42.9481 13.7784 42.9337 13.7386 42.9082 13.7061C42.8827 13.6737 42.8474 13.6504 42.8076 13.6396C42.7677 13.6288 42.7255 13.6311 42.6871 13.6462C42.6487 13.6613 42.6162 13.6884 42.5945 13.7235C42.062 14.7088 41.7097 19.0496 43.7683 18.6113C43.9638 18.5698 43.8966 18.3108 43.7249 18.2923Z" fill="#A0A0A0"/>
<path d="M43.5589 15.9743C43.7198 15.0257 44.06 14.122 44.2285 13.1846C44.2382 13.1435 44.2331 13.1002 44.214 13.0625C44.1949 13.0249 44.163 12.9951 44.1241 12.9787C44.0852 12.9622 44.0417 12.96 44.0013 12.9725C43.961 12.9851 43.9263 13.0115 43.9036 13.0471C43.4273 13.9325 43.2017 14.9311 43.2509 15.9353C43.2493 16.1083 43.5288 16.1541 43.5589 15.9743Z" fill="#A0A0A0"/>
<path d="M45.1055 12.8239C44.4127 13.686 44.053 14.7685 44.0921 15.8738C44.0925 15.9132 44.1071 15.9511 44.1331 15.9807C44.1592 16.0102 44.195 16.0294 44.234 16.0348C44.2731 16.0401 44.3127 16.0312 44.3457 16.0097C44.3787 15.9882 44.4029 15.9555 44.4138 15.9176C44.5711 15.425 44.6849 14.9199 44.8526 14.4297C45.0203 13.9395 45.2387 13.4774 45.3694 12.9787C45.3766 12.9455 45.3732 12.9109 45.3596 12.8798C45.346 12.8487 45.3229 12.8227 45.2936 12.8055C45.2644 12.7884 45.2304 12.7809 45.1966 12.7842C45.1628 12.7875 45.131 12.8014 45.1055 12.8239Z" fill="#A0A0A0"/>
<path d="M47.086 13.181C47.1914 13.0286 46.9899 12.8673 46.8471 12.9421C45.8172 13.4822 45.2212 14.8061 44.9972 15.8863C44.9895 15.9218 44.9958 15.9589 45.0146 15.9899C45.0334 16.021 45.0635 16.0437 45.0985 16.0532C45.1336 16.0628 45.171 16.0586 45.203 16.0415C45.235 16.0243 45.2592 15.9955 45.2707 15.9611C45.9137 14.3054 46.591 13.8976 47.086 13.181Z" fill="#A0A0A0"/>
<path d="M47.253 15.2633C46.2923 15.5794 45.5921 16.7762 45.3749 17.7165C45.365 17.7604 45.3728 17.8064 45.3968 17.8445C45.4208 17.8826 45.4589 17.9096 45.5028 17.9196C45.7506 17.9759 45.7156 17.6083 46.5484 16.5522C46.8674 16.22 47.1614 15.8646 47.4279 15.489C47.4421 15.4623 47.4483 15.4322 47.4458 15.4021C47.4432 15.372 47.432 15.3434 47.4135 15.3195C47.395 15.2957 47.37 15.2777 47.3416 15.2677C47.3131 15.2577 47.2823 15.2562 47.253 15.2633Z" fill="#A0A0A0"/>
<path d="M65.9532 49.9619C65.89 50.1831 65.902 50.419 65.9873 50.6326C66.0727 50.8461 66.2267 51.0253 66.425 51.1419C67.2442 51.614 68.4864 51.497 69.3703 51.318C70.2185 51.1463 70.9323 50.8648 70.9323 49.8863C70.8533 48.8306 70.3942 47.8393 69.6402 47.0962C69.5953 47.0539 69.5369 47.0291 69.4753 47.0261C69.4138 47.023 69.3532 47.042 69.3044 47.0797C69.2556 47.1173 69.2219 47.1711 69.2092 47.2314C69.1965 47.2917 69.2057 47.3546 69.2352 47.4087C69.5598 48.0404 70.05 48.5452 70.2539 49.2469C70.3375 49.5336 70.4594 50.0536 70.2728 50.3392C70.0862 50.6247 69.5292 50.7011 69.2183 50.7646C68.516 50.9147 67.7903 50.9173 67.0869 50.7723C66.0337 50.5475 66.6192 49.6462 66.5915 48.9276C66.5906 48.893 66.5774 48.8598 66.5543 48.834C66.5313 48.8081 66.4998 48.7913 66.4655 48.7865C66.4312 48.7817 66.3963 48.7891 66.367 48.8076C66.3377 48.8261 66.316 48.8544 66.3055 48.8874C66.2476 49.0257 66.1849 49.1798 66.1238 49.3406C65.4803 49.4287 65.7618 48.6972 65.8648 48.4197C65.9836 48.0958 66.137 47.7857 66.3224 47.4947C66.4093 47.3596 66.2231 47.2418 66.1137 47.3339C65.5885 47.7726 65.0279 48.517 65.1284 49.2501C65.1811 49.6374 65.5977 50.0335 65.9532 49.9619Z" fill="#A0A0A0"/>
<path d="M74.9212 71.0416C74.9011 71.0115 70.9664 65.9797 69.4921 63.3416C66.1912 57.4251 64.7025 52.3628 63.7236 50.2266C63.6669 50.1027 63.4904 50.1952 63.5141 50.3146C63.9541 52.5478 65.6713 56.7744 66.6018 58.8596C68.2844 62.6298 71.3782 68.3834 74.3578 70.9242C73.9074 71.4597 73.3087 71.8499 72.637 72.0458C71.4627 70.9021 66.6485 67.7701 60.8623 58.6175C59.7789 56.9035 58.8515 55.1312 57.816 53.4092C57.7488 53.2978 57.5449 53.371 57.5928 53.5009C58.6887 56.4873 60.5981 59.3856 62.4528 62.031C62.3937 62.1951 62.1178 63.4104 62.1178 63.4104C60.4728 63.3789 58.8331 63.2151 57.2144 62.9205C55.5917 62.6085 54.0091 62.1156 52.4963 61.4511C50.7103 60.7091 50.5881 60.2261 50.6713 57.0049C50.7492 55.1569 51.0037 53.3206 51.4314 51.5211C51.437 51.5007 51.4386 51.4793 51.436 51.4583C51.4334 51.4372 51.4267 51.4169 51.4162 51.3984C51.4058 51.38 51.3918 51.3638 51.3751 51.3507C51.3584 51.3377 51.3392 51.3281 51.3188 51.3224C51.2984 51.3168 51.277 51.3152 51.256 51.3178C51.2349 51.3204 51.2146 51.3271 51.1961 51.3376C51.1777 51.348 51.1615 51.362 51.1484 51.3788C51.1354 51.3955 51.1258 51.4146 51.1201 51.435C50.462 53.3628 50.1144 55.383 50.0902 57.4199C50.0572 59.7403 50.0544 60.9588 51.6872 61.7298C54.6603 63.1329 59.0466 64.2167 62.2308 63.7964C62.5419 65.4327 62.6562 67.1004 62.571 68.7638C62.5733 68.8175 62.5909 68.8694 62.6217 68.9134C62.6525 68.9574 62.6952 68.9916 62.7448 69.0121C62.7945 69.0326 62.8489 69.0385 62.9018 69.0291C62.9546 69.0197 63.0037 68.9953 63.0432 68.9589C64.0434 67.8556 64.6151 66.4304 64.6546 64.9418C67.7633 68.7932 71.3006 71.8484 72.347 72.4745C72.347 72.4809 72.1017 75.2268 70.4621 75.7509C70.3133 75.7803 70.1721 75.8397 70.0469 75.9254C69.9218 76.0111 69.8154 76.1214 69.7342 76.2495C69.3634 76.9782 73.6077 76.8322 73.6214 76.8254C74.0513 76.6103 75.4613 71.8435 74.9212 71.0416Z" fill="#A0A0A0"/>
<path d="M56.4472 52.7935C56.1981 54.5885 55.7757 56.3551 55.186 58.0686C55.1675 58.1419 55.1781 58.2196 55.2156 58.2853C55.2531 58.3511 55.3145 58.3998 55.3871 58.4213C57.1204 58.9513 58.7342 59.8216 60.4542 60.3596C60.6223 60.4123 60.6919 60.1855 60.5656 60.093C59.4637 59.2847 57.015 58.3235 55.8174 57.9523C56.3124 56.2854 56.615 54.5672 56.719 52.8313C56.7287 52.6761 56.4681 52.6363 56.4472 52.7935Z" fill="#A0A0A0"/>
<path d="M39.9639 13.5292C39.9357 13.5027 39.8997 13.486 39.8613 13.4815C39.8228 13.4771 39.784 13.4852 39.7505 13.5046C39.717 13.5241 39.6907 13.5538 39.6755 13.5894C39.6602 13.625 39.6569 13.6645 39.6659 13.7022C39.8469 14.422 40.3592 15.0389 40.2901 16.4038C40.2451 17.3257 39.9351 18.215 39.3973 18.9651C39.2799 19.126 39.5453 19.3331 39.6752 19.1795C40.3488 18.4356 40.7633 17.4935 40.8567 16.4943C40.9327 15.5299 40.7224 14.2097 39.9639 13.5292Z" fill="#A0A0A0"/>
<path d="M39.3307 15.8738C39.3374 15.9133 39.3579 15.9491 39.3886 15.975C39.4192 16.0008 39.4579 16.015 39.498 16.015C39.5381 16.015 39.5768 16.0008 39.6075 15.975C39.6381 15.9491 39.6586 15.9133 39.6653 15.8738C39.7148 14.8037 39.5189 13.3764 38.6599 12.6107C38.6337 12.5863 38.6004 12.5709 38.5648 12.5669C38.5292 12.5629 38.4932 12.5705 38.4623 12.5886C38.4314 12.6067 38.4071 12.6342 38.3931 12.6672C38.379 12.7002 38.376 12.7368 38.3844 12.7716C38.6161 13.5449 39.1831 14.1767 39.3307 15.8738Z" fill="#A0A0A0"/>
<path d="M38.3952 15.5806C38.4194 15.8038 38.7624 15.8191 38.76 15.5806C38.7487 14.5057 38.4576 12.8765 37.4441 12.283C37.4145 12.2665 37.3807 12.259 37.3469 12.2615C37.3131 12.264 37.2807 12.2763 37.2538 12.297C37.2269 12.3176 37.2067 12.3457 37.1955 12.3777C37.1844 12.4097 37.1829 12.4443 37.1912 12.4772C37.465 13.2079 38.2014 13.7963 38.3952 15.5806Z" fill="#A0A0A0"/>
<path d="M37.0573 14.2724C37.6271 15.9381 37.2615 16.428 37.5772 16.4272C37.616 16.4272 37.6531 16.4118 37.6805 16.3844C37.7078 16.357 37.7232 16.3199 37.7232 16.2812C37.8054 15.5605 37.7413 14.8306 37.5346 14.1353C37.3828 13.4614 37.0462 12.843 36.5626 12.3497C36.4247 12.2367 36.1303 12.3385 36.2155 12.5508C36.456 13.1504 36.8453 13.6543 37.0573 14.2724Z" fill="#A0A0A0"/>
<path d="M36.9241 18.2288C36.9503 18.3643 37.1678 18.3326 37.1654 18.1962C37.1381 17.1394 36.8188 15.828 35.8431 15.2489C35.807 15.2287 35.7653 15.2209 35.7243 15.2267C35.6833 15.2324 35.6454 15.2514 35.6162 15.2807C35.587 15.3101 35.5682 15.3481 35.5626 15.3891C35.5571 15.4301 35.5651 15.4718 35.5854 15.5078C35.9183 16.0942 36.6454 16.7738 36.9241 18.2288Z" fill="#A0A0A0"/>
<path d="M39.2188 19.5121C39.0284 19.9793 38.9114 20.473 38.8717 20.9759C38.5178 22.6062 37.9088 24.1703 37.0672 25.6108C35.9686 27.5813 32.4915 30.6461 32.4915 30.6461C32.4915 30.6461 31.7677 29.2631 31.6591 26.5948C33.9869 25.3 35.811 23.2591 36.8372 20.801C37.1525 20.157 37.3565 19.4642 37.4404 18.752C37.4517 18.5131 37.0672 18.3881 36.9671 18.6237C36.6229 19.4345 36.0422 22.7776 32.6106 25.3051C30.6781 26.6987 28.3806 27.4973 26.0004 27.6026C26.0305 27.3428 26.0004 27.0798 26.0241 26.8216C26.0478 26.5635 26.1045 26.2759 26.1468 26.0024C28.2532 25.5721 28.515 21.8603 26.9881 20.3019C26.8377 20.1479 26.6209 20.3421 26.7066 20.5199C27.2125 21.5904 27.6114 22.5962 27.3955 23.8083C27.3375 24.4181 27.0444 24.9813 26.5783 25.3787C26.2938 25.5553 25.9575 25.6294 25.6251 25.5888C25.2927 25.5482 24.9842 25.3953 24.7505 25.1555C24.6495 25.061 24.4658 25.1857 24.5494 25.3095C24.6855 25.5316 24.876 25.7153 25.103 25.843C25.33 25.9708 25.5859 26.0384 25.8464 26.0394C25.6478 26.5422 25.6087 27.0938 25.7346 27.6195C25.2858 27.6336 24.8366 27.6191 24.3898 27.5761C24.167 27.5528 21.7528 27.7434 20.6638 28.4307C20.1056 28.3627 18.4898 29.011 18.0389 29.235C16.6669 29.9147 15.4121 30.8091 14.3218 31.8843C14.0974 32.1067 13.7267 32.3891 13.7472 32.745C13.8189 33.0587 14.0066 33.3337 14.2728 33.5147C13.1274 34.5269 12.2648 36.1062 12.5194 37.6283C12.8242 39.4505 14.4441 41.0313 16.0314 41.8602C16.0711 41.8819 16.1173 41.8888 16.1616 41.8795C16.2058 41.8702 16.2454 41.8454 16.273 41.8095C16.3006 41.7736 16.3145 41.7291 16.3121 41.6839C16.3098 41.6387 16.2914 41.5958 16.2602 41.563C15.0964 40.3344 13.5602 39.5148 13.1355 37.7397C12.7442 36.1058 13.7681 35.0147 14.6074 33.7986C15.0278 34.2386 15.4935 34.6329 15.9968 34.9749C16.032 34.994 16.0725 35.0012 16.1121 34.9954C16.1517 34.9896 16.1884 34.9711 16.2166 34.9427C16.2449 34.9143 16.2632 34.8776 16.2688 34.8379C16.2744 34.7983 16.267 34.7579 16.2478 34.7227C16.0278 34.3335 14.3604 32.7606 14.3999 32.5966C14.4642 32.3275 15.9892 31.0981 16.3608 30.8271C17.4693 30.0207 18.6883 29.3784 19.9801 28.9201C18.9731 29.7159 18.1729 30.743 17.6477 31.9141C16.9978 33.3788 16.8667 34.997 16.8168 36.5819C16.5329 45.5901 15.6365 44.9041 14.9375 47.13C14.9251 47.1597 14.1566 50.373 14.0448 50.8403C12.404 56.3872 11.3503 59.9776 8.70617 65.8144C7.33483 68.8411 6.6399 69.9791 6.02099 71.4076C5.92407 71.6308 6.33025 72.222 7.48845 72.5537C7.82344 72.6498 8.87105 72.5537 9.17146 72.1765C9.47187 71.7993 10.9112 69.8947 11.7324 68.7707C12.7378 67.3969 18.3462 58.8121 19.7674 55.6938C20.4913 54.1065 21.4709 50.7152 21.6644 50.5994C21.738 50.5555 21.8321 50.6396 21.8578 50.72C21.8835 50.8004 21.4741 52.5502 21.2908 53.3404C21.1786 53.823 21.0197 54.9028 21.179 55.1127C21.539 55.5374 21.9275 55.937 22.342 56.3087C21.4775 56.6236 20.6431 57.0154 19.8486 57.4794C18.8963 58.1715 18.1314 59.5304 17.5375 60.5273C17.3271 60.88 16.3334 62.8196 16.1673 63.2057C16.1425 63.2491 16.128 63.2976 16.1252 63.3476C16.1224 63.3975 16.1313 63.4474 16.1511 63.4933C16.1709 63.5392 16.2012 63.5798 16.2394 63.612C16.2777 63.6442 16.323 63.667 16.3716 63.6786C17.9046 63.5954 19.4795 63.0822 20.9381 62.633C22.539 62.1453 24.1018 61.5405 25.6139 60.8233C26.9225 60.198 28.3759 59.454 29.2598 58.2644C30.4092 56.7165 26.8899 47.0918 25.5894 46.8614C25.4776 46.8416 23.9048 48.657 17.6304 47.7006C16.9065 47.5901 16.3302 47.1191 15.6337 46.914C16.6391 45.4932 16.8554 43.6353 17.0565 41.9647C17.6597 36.9595 16.775 33.2605 19.2852 30.3775C20.5554 28.9332 22.3305 28.0302 24.2458 27.854C24.288 27.854 26.2356 28.9185 31.3289 26.7778C31.2815 27.622 31.3421 28.4689 31.5095 29.2977C31.6032 29.757 32.1079 31.4428 32.3701 31.7283C30.6087 33.197 29.4842 33.538 28.4137 34.1376C28.3711 34.1839 28.3404 34.24 28.3244 34.3009C28.0803 35.7848 25.9212 44.7291 25.7358 45.6533C25.7234 45.7186 25.7361 45.7862 25.7713 45.8426C25.8065 45.899 25.8616 45.9401 25.9258 45.9577C25.9899 45.9753 26.0583 45.9681 26.1173 45.9375C26.1764 45.907 26.2218 45.8553 26.2445 45.7928C26.594 44.8594 28.6494 35.3119 28.5878 34.4312C30.2129 34.1497 31.7146 33.0124 32.7952 31.8321C32.8756 31.7432 32.7103 31.1971 32.6142 30.9674C32.6544 30.9984 36.3084 27.9605 37.5068 25.9807C38.0981 25.003 38.5818 23.9643 38.9497 22.8825C39.1343 22.3412 39.7251 20.0876 39.5767 19.5748C39.5666 19.5381 39.5462 19.5051 39.5181 19.4795C39.4899 19.4539 39.4551 19.4368 39.4176 19.4303C39.3801 19.4237 39.3415 19.4279 39.3063 19.4424C39.2711 19.4569 39.2408 19.481 39.2188 19.5121Z" fill="#A0A0A0"/>
<path d="M26.3918 23.3945C26.6291 23.5658 27.2709 23.8405 27.3506 23.3543C27.3855 23.1407 26.9102 22.2073 26.757 21.9769C26.6862 21.8711 26.4823 21.9367 26.5338 22.0698C26.6428 22.3513 26.9009 23.162 26.8957 23.1701C26.8905 23.1781 26.6629 23.0715 26.5422 23.0341C26.3162 22.963 26.2205 23.271 26.3918 23.3945Z" fill="#A0A0A0"/>
<path d="M25.5367 22.4691C25.5948 22.2877 25.5948 22.0927 25.5367 21.9113C25.5246 21.8722 25.5002 21.8379 25.4671 21.8136C25.4341 21.7892 25.3942 21.7761 25.3531 21.7761C25.3121 21.7761 25.2722 21.7892 25.2391 21.8136C25.2061 21.8379 25.1817 21.8722 25.1696 21.9113C25.1114 22.0927 25.1114 22.2877 25.1696 22.4691C25.1884 22.5011 25.2152 22.5275 25.2474 22.5459C25.2796 22.5643 25.3161 22.574 25.3531 22.574C25.3902 22.574 25.4267 22.5643 25.4589 22.5459C25.491 22.5275 25.5179 22.5011 25.5367 22.4691Z" fill="#A0A0A0"/>
<path d="M24.884 21.6881C25.1534 21.21 25.5081 21.214 25.6987 21.023C25.7171 21.0041 25.7303 20.9807 25.737 20.9552C25.7437 20.9296 25.7437 20.9028 25.7369 20.8773C25.7301 20.8518 25.7169 20.8284 25.6984 20.8096C25.68 20.7907 25.6569 20.7769 25.6316 20.7696C25.1599 20.6727 24.7798 21.2144 24.6342 21.5844C24.5804 21.7211 24.8128 21.8152 24.884 21.6881Z" fill="#A0A0A0"/>
<path d="M24.7357 23.5851C24.9995 24.5579 25.9747 25.0099 26.442 24.6846C26.4719 24.6655 26.4957 24.6384 26.5107 24.6062C26.5257 24.5741 26.5312 24.5384 26.5267 24.5033C26.5221 24.4682 26.5076 24.435 26.485 24.4078C26.4623 24.3806 26.4323 24.3604 26.3986 24.3496C26.104 24.3324 25.8166 24.2517 25.5561 24.1131C25.3271 23.9189 25.1171 23.7035 24.9287 23.4697C24.9134 23.4441 24.8885 23.4256 24.8596 23.4183C24.8307 23.4111 24.8001 23.4156 24.7745 23.4309C24.7489 23.4462 24.7304 23.471 24.7231 23.4999C24.7158 23.5289 24.7204 23.5595 24.7357 23.5851Z" fill="#A0A0A0"/>
</svg>
