<svg width="82" height="81" viewBox="0 0 82 81" fill="none" xmlns="http://www.w3.org/2000/svg">
<path d="M27.8717 20.1585C27.7812 20.249 28.2738 20.6753 28.3434 20.7244C28.5082 20.8418 28.7022 20.9115 28.904 20.926C29.1059 20.9404 29.3078 20.8989 29.4876 20.8061C29.6674 20.7132 29.8181 20.5726 29.9233 20.3997C30.0284 20.2268 30.0838 20.0283 30.0835 19.8259C30.0736 19.5647 29.9769 19.3141 29.8088 19.1139C29.6406 18.9136 29.4106 18.775 29.155 18.72C29.2484 18.3384 29.1998 17.9359 29.0182 17.5875C28.8367 17.2391 28.5346 16.9686 28.1684 16.8265C27.8021 16.6844 27.3966 16.6804 27.0276 16.8153C26.6586 16.9501 26.3513 17.2146 26.1629 17.5594C25.669 17.1425 25.0453 16.9106 24.399 16.9037C23.7527 16.8968 23.1242 17.1153 22.6215 17.5216C22.1188 17.9279 21.7734 18.4966 21.6446 19.13C21.5158 19.7634 21.6117 20.4218 21.9158 20.9922C21.4836 20.8183 21.006 20.792 20.5574 20.9175C20.1087 21.043 19.7141 21.3132 19.4348 21.6861C19.1555 22.059 19.0073 22.5137 19.0131 22.9796C19.019 23.4454 19.1786 23.8963 19.4671 24.2621C19.1088 24.2194 18.7455 24.2555 18.4026 24.3679C18.0597 24.4803 17.7455 24.6663 17.4821 24.9128C17.1325 25.2093 16.8548 25.5812 16.67 26.0007C16.4852 26.4202 16.398 26.8761 16.4151 27.3342C16.459 28.4332 17.4587 29.7414 18.5498 29.6767C19.7765 29.4369 20.9865 29.1185 22.1724 28.7236C22.5252 28.6324 22.8455 28.4445 23.0973 28.1811C23.9282 27.1556 24.1453 24.9936 24.1429 23.7976C24.1429 23.2607 24.0412 22.7295 24.0311 22.1995C24.2878 22.1972 24.5407 22.1367 24.7706 22.0224C25.0005 21.9082 25.2014 21.7432 25.3582 21.5399C25.6292 21.1732 25.7599 20.7215 25.7266 20.2667C26.0349 20.5155 26.4241 20.6421 26.8198 20.6221C27.2155 20.6021 27.59 20.4371 27.8717 20.1585Z" fill="#38A1FF"/>
<path d="M29.9906 26.8371C29.527 26.1547 28.9473 25.559 28.2778 25.0769C28.3289 25.1139 27.6746 25.6801 27.6082 25.7231C27.4039 25.8611 27.0368 25.9274 26.8884 26.1217C26.7803 26.3621 26.7321 26.6251 26.7476 26.8882C26.7039 27.2831 26.6723 27.68 26.6527 28.0789C27.7008 28.0292 28.743 27.893 29.7686 27.6716C30.1478 27.6249 30.3248 27.3169 29.9906 26.8371Z" fill="#38A1FF"/>
<path d="M60.9131 17.4641C61.5222 17.7913 62.0402 18.265 62.4205 18.8425C62.8008 19.4199 63.0312 20.083 63.0911 20.7718C63.0934 20.8205 63.1143 20.8664 63.1495 20.9001C63.1848 20.9337 63.2316 20.9525 63.2804 20.9525C63.3291 20.9525 63.3759 20.9337 63.4112 20.9001C63.4464 20.8664 63.4673 20.8205 63.4696 20.7718C63.4626 20.0086 63.228 19.2648 62.7958 18.6358C62.3635 18.0067 61.7534 17.521 61.0434 17.2409C60.8954 17.1826 60.7615 17.3881 60.9131 17.4641Z" fill="#38A1FF"/>
<path d="M64.532 20.3363C64.5617 20.0258 64.5646 19.7134 64.5408 19.4025C64.5223 19.1511 64.1318 19.1479 64.1471 19.4025C64.165 19.7284 64.2113 20.0522 64.2854 20.37C64.3212 20.5164 64.5187 20.4694 64.532 20.3363Z" fill="#38A1FF"/>
<path d="M49.9564 33.5503C49.5992 33.1481 48.1688 32.3185 47.4264 31.2491C45.1486 27.9672 44.4436 24.0614 44.4336 20.0648C44.4456 20.0592 45.5998 19.2396 46.4154 19.2022C46.9767 19.1872 47.5327 19.3147 48.0312 19.573C48.0136 20.074 48.0669 20.5749 48.1897 21.061C48.8331 24.6534 50.6376 28.679 54.1995 29.4563C54.2171 29.4612 54.2356 29.4626 54.2538 29.4603C54.272 29.4581 54.2895 29.4523 54.3055 29.4432C54.3214 29.4342 54.3355 29.4221 54.3467 29.4077C54.358 29.3932 54.3663 29.3767 54.3712 29.359C54.3761 29.3413 54.3774 29.3229 54.3752 29.3047C54.3729 29.2865 54.3671 29.2689 54.3581 29.253C54.3491 29.237 54.337 29.223 54.3225 29.2118C54.3081 29.2005 54.2915 29.1922 54.2739 29.1873C52.4587 28.4298 50.9893 27.0253 50.1506 25.2462C48.7338 22.3957 48.8102 20.4783 48.433 19.4443C48.2661 18.9867 46.939 18.5974 46.3205 18.632C45.6678 18.6686 44.2237 19.3639 44.1533 19.6052C43.357 22.343 44.1597 25.4947 45.149 28.1344C45.6371 29.4211 46.2865 30.6405 47.0818 31.7635C47.9729 33.0331 49.2699 33.8909 49.8003 33.9162C49.8429 33.9167 49.8847 33.9046 49.9204 33.8813C49.9561 33.858 49.9841 33.8247 50.0008 33.7855C50.0175 33.7463 50.0222 33.703 50.0143 33.6611C50.0064 33.6192 49.9862 33.5806 49.9564 33.5503Z" fill="#38A1FF"/>
<path d="M54.304 29.4997C53.6718 30.4766 54.4616 31.9296 55.5318 32.1656C56.5754 32.3961 57.9479 31.9159 58.2725 30.8265C58.3296 30.6346 58.0505 30.45 57.9165 30.6201C57.6852 30.9581 57.369 31.2293 56.9998 31.4065C56.6306 31.5838 56.2213 31.6608 55.8129 31.63C54.756 31.5069 54.5393 30.4665 54.6064 29.579C54.6193 29.4117 54.3844 29.3755 54.304 29.4997Z" fill="#38A1FF"/>
<path d="M70.5628 44.3384C70.4152 41.7952 70.1711 39.8536 69.0093 37.3812C67.7184 34.6328 65.6903 31.9119 63.0433 30.3386C61.6824 29.5295 60.0654 29.0863 58.5103 29.5472C58.3554 29.5931 58.3763 29.8532 58.5505 29.8396C62.4309 29.5384 65.4675 32.5883 67.3934 35.6358C69.2711 38.6097 69.7738 40.8236 69.9511 43.9568C69.956 44.9115 70.0348 45.8643 70.1868 46.8068C70.2419 47.0622 70.597 46.981 70.6175 46.7477C70.6578 45.9444 70.6395 45.1391 70.5628 44.3384Z" fill="#38A1FF"/>
<path d="M69.8208 46.7099C69.3372 46.8323 68.8424 46.9048 68.3441 46.9263C68.0976 46.9186 67.7919 46.8149 67.5229 46.8149C67.428 45.0474 66.2195 42.2062 65.1502 40.4894C63.9803 38.6101 62.4091 36.7136 60.4365 35.6443C60.297 35.5683 60.1397 35.7557 60.2624 35.8675L60.2845 35.8896C60.2614 35.904 60.2423 35.9241 60.2291 35.948C60.2159 35.9718 60.2089 35.9986 60.2089 36.0259C60.1309 40.4062 61.6225 44.7723 63.8098 48.481C64.031 48.8562 64.2859 49.498 64.6917 49.6931C64.7247 49.7092 64.761 49.7169 64.7977 49.7157C64.8343 49.7144 64.8701 49.7042 64.9018 49.6859C64.9336 49.6676 64.9604 49.6418 64.9799 49.6107C64.9993 49.5796 65.0108 49.5443 65.0134 49.5077C64.9978 49.0814 64.6085 48.6817 64.3949 48.3238C62.356 44.9055 60.6147 40.1311 60.5459 36.1361C63.0047 38.4718 64.8087 40.2924 66.1226 43.7549C66.5179 44.7969 66.6884 45.875 67.0073 46.9319C67.0077 46.9855 67.0229 47.038 67.0513 47.0836C67.0797 47.1291 67.1201 47.1658 67.1682 47.1897C68.0622 47.5468 69.38 47.7185 70.0307 47.0638C70.1904 46.9046 70.017 46.6777 69.8208 46.7099Z" fill="#38A1FF"/>
<path d="M64.388 49.6259C62.9555 50.3579 62.117 51.6367 58.9488 51.8346C56.7772 51.9693 54.5107 51.7988 52.5019 50.9185C52.5019 50.9048 51.5826 49.416 51.0139 46.356C49.6285 38.9246 50.344 36.5837 51.3019 31.967C51.332 31.823 51.1117 31.7044 51.0465 31.8556C50.4438 33.377 50.0514 34.9735 49.8803 36.601C49.4519 39.8795 49.6386 43.2091 50.4308 46.4192C50.8227 48.0267 51.3702 49.5923 52.0656 51.0938C53.9935 52.5375 56.8484 52.5653 59.1576 52.406C60.2161 52.3389 61.2534 52.0787 62.2183 51.6383C63.0178 51.2683 64.2291 50.7045 64.6313 49.8652C64.6505 49.8314 64.658 49.7921 64.6527 49.7536C64.6473 49.715 64.6294 49.6793 64.6016 49.652C64.5739 49.6247 64.5379 49.6074 64.4992 49.6027C64.4606 49.5979 64.4215 49.6061 64.388 49.6259Z" fill="#38A1FF"/>
<path d="M40.7921 2.45091C40.737 2.20962 40.4048 2.28683 40.3859 2.50681C40.2826 3.69879 40.5371 4.98166 40.7077 6.16158C40.8872 7.42175 41.1334 8.67152 41.4452 9.90563C41.5023 10.1288 41.8269 10.0327 41.789 9.81072C40.8384 4.22039 41.1673 4.08848 40.7921 2.45091Z" fill="#38A1FF"/>
<path d="M45.1008 9.28953C47.2664 6.89913 48.6889 5.67256 49.3975 4.78541C49.5229 4.62857 49.3609 4.34103 49.1618 4.48058C47.7293 5.48596 45.8911 7.69781 44.8286 9.0784C44.7083 9.23605 44.9693 9.43471 45.1008 9.28953Z" fill="#38A1FF"/>
<path d="M48.0268 9.53403C49.3583 8.95774 50.8418 8.46873 52.0386 7.63667C52.212 7.51602 52.1126 7.20315 51.8858 7.27473C50.4952 7.72394 49.1966 8.5954 47.9318 9.31124C47.8164 9.3784 47.8944 9.59114 48.0268 9.53403Z" fill="#38A1FF"/>
<path d="M36.7737 8.03078C36.1287 7.13508 35.417 6.28936 34.6447 5.50084C34.6086 5.4685 34.5622 5.44987 34.5138 5.4482C34.4653 5.44652 34.4178 5.46191 34.3795 5.49168C34.3412 5.52145 34.3146 5.56371 34.3042 5.61109C34.2939 5.65847 34.3006 5.70798 34.323 5.75098C34.9082 6.62401 35.5591 7.45109 36.2702 8.22502C36.9716 9.07598 37.6942 9.89959 38.4161 10.7381C38.55 10.8933 38.8315 10.681 38.704 10.5149C38.0658 9.68364 37.4332 8.84836 36.7737 8.03078Z" fill="#38A1FF"/>
<path d="M35.6239 12.0917C34.4533 11.3631 33.1501 10.8731 31.7894 10.65C31.61 10.6263 31.5987 10.8957 31.7491 10.95C33.0092 11.3534 34.2372 11.8508 35.4228 12.438C35.4683 12.459 35.52 12.4623 35.5677 12.4472C35.6155 12.4321 35.6559 12.3997 35.681 12.3564C35.7062 12.3131 35.7143 12.262 35.7037 12.213C35.6931 12.1641 35.6647 12.1208 35.6239 12.0917Z" fill="#38A1FF"/>
<path d="M13.7625 76.7604C13.1822 76.6398 12.7828 76.8441 12.2391 76.4158C11.4404 75.7868 10.5629 73.6787 10.0317 72.917C9.94321 72.7904 9.7184 72.8628 9.76827 73.0288C9.96653 73.6912 11.099 76.6482 12.4868 77.2426C12.8303 77.3278 13.1858 77.3542 13.5381 77.3206C13.7524 77.4984 11.5024 78.172 11.0849 78.1523C10.5356 78.0905 9.99045 77.9965 9.45218 77.8708C8.33017 76.9615 7.33162 75.297 6.64555 74.0294C6.83094 72.6066 7.10038 72.3211 6.84662 72.2652C6.81994 72.2595 6.79217 72.262 6.76693 72.2723C6.74168 72.2826 6.72013 72.3003 6.70507 72.3231C6.51927 72.5989 6.13682 73.7362 6.27878 73.9494C6.50093 74.8503 6.90206 75.6973 7.4583 76.4399C7.90067 77.0327 8.72227 78.4692 10.8842 78.7008C11.9367 78.8138 14.0339 78.1101 14.2454 77.8796C14.646 77.4425 14.2704 76.865 13.7625 76.7604Z" fill="#38A1FF"/>
<path d="M17.5355 20.0186C17.7292 19.2108 18.0553 18.4407 18.5007 17.7396C18.9808 17.0672 19.5246 16.4427 20.1246 15.8748C20.1534 15.8449 20.1705 15.8057 20.1728 15.7643C20.1751 15.723 20.1624 15.6821 20.1371 15.6493C20.1118 15.6164 20.0756 15.5937 20.035 15.5854C19.9943 15.577 19.9521 15.5835 19.9159 15.6037C18.4343 16.445 17.5432 18.3239 17.2017 19.9225C17.1547 20.1432 17.4832 20.2361 17.5355 20.0186Z" fill="#38A1FF"/>
<path d="M17.0682 16.5122C16.4339 17.1857 16.0546 18.0594 15.9957 18.9826C15.9716 19.1958 16.3025 19.1905 16.3307 18.9826C16.4896 18.1596 16.8252 17.3808 17.3144 16.7C17.3326 16.6672 17.3384 16.6288 17.3307 16.5921C17.323 16.5553 17.3024 16.5225 17.2725 16.4997C17.2426 16.4769 17.2055 16.4657 17.168 16.4679C17.1305 16.4702 17.0951 16.4859 17.0682 16.5122Z" fill="#38A1FF"/>
<path d="M56.168 25.8349C56.6176 25.7589 56.8887 25.2373 56.5971 25.1649C56.4552 25.1295 56.4318 25.2719 56.045 25.3893C55.8881 25.4174 55.7278 25.4216 55.5696 25.4018C55.5288 25.4023 55.4899 25.4189 55.4613 25.448C55.4327 25.4771 55.4167 25.5162 55.4168 25.557C55.418 25.7107 55.7401 25.933 56.168 25.8349Z" fill="#191919"/>
<path d="M55.2459 27.4118C55.1534 27.5992 54.7975 28.7345 54.6829 29.1036C54.6362 29.2516 54.8671 29.3538 54.9374 29.215C55.1108 28.8728 55.6295 27.8155 55.6939 27.6225C56.8481 27.9993 58.032 27.2312 58.1539 26.3493C58.1748 26.1953 57.9825 26.0151 57.8534 26.1739C57.4465 26.675 57.0588 27.1709 56.3438 27.1616C56.0174 27.1537 55.7011 27.0475 55.4361 26.8569C55.1711 26.6664 54.9697 26.4003 54.8582 26.0935C54.3889 24.92 54.6648 23.5254 55.1305 22.3989C55.1707 22.2972 55.0191 22.2517 54.9644 22.3285C53.9135 23.7984 53.7125 26.4888 55.2459 27.4118Z" fill="#191919"/>
<path d="M55.7152 23.416C55.7957 23.3231 55.6915 23.161 55.5769 23.2362C55.2238 23.4675 54.7324 23.8511 54.7324 24.3277C54.7324 24.6924 55.2443 25.0813 55.5427 24.7483C55.5659 24.7226 55.5787 24.6892 55.5787 24.6546C55.5787 24.62 55.5659 24.5866 55.5427 24.5609C55.371 24.3683 55.0891 24.4069 55.2668 24.0783C55.392 23.842 55.5423 23.62 55.7152 23.416Z" fill="#191919"/>
<path d="M56.5749 22.9334C56.54 22.9182 56.5007 22.9164 56.4645 22.9284C56.4283 22.9403 56.3977 22.9651 56.3787 22.9981C56.3035 23.0871 56.2418 23.1867 56.1957 23.2937C56.179 23.34 56.1813 23.3909 56.2021 23.4355C56.2229 23.48 56.2605 23.5145 56.3067 23.5314C56.7165 23.6038 56.7257 22.9997 56.5749 22.9334Z" fill="#191919"/>
<path d="M56.9534 23.2981C56.9631 23.3287 56.9812 23.3558 57.0057 23.3764C57.0302 23.3969 57.0601 23.4101 57.0918 23.4143C57.1236 23.4185 57.1558 23.4136 57.1849 23.4002C57.2139 23.3867 57.2385 23.3653 57.2558 23.3384C57.3125 23.2206 57.3379 23.0903 57.3295 22.9599C57.3211 22.8295 57.2792 22.7035 57.208 22.594C57.1596 22.4777 57.0782 22.3783 56.9738 22.3079C56.8694 22.2374 56.7467 22.1992 56.6208 22.1979C56.5897 22.1986 56.56 22.2104 56.5368 22.2312C56.5137 22.2519 56.4987 22.2802 56.4945 22.311C56.4904 22.3418 56.4973 22.3731 56.5141 22.3992C56.5309 22.4253 56.5565 22.4446 56.5862 22.4536C56.7322 22.4963 56.8319 22.7279 56.871 22.8598C56.91 22.9917 56.8975 23.1574 56.9534 23.2981Z" fill="#191919"/>
<path d="M57.8531 21.8287C57.6825 22.7576 58.3855 24.3288 59.5224 24.2569C59.0065 24.9684 58.643 25.7787 58.4547 26.6372C58.1674 27.5273 58.0959 28.4728 58.246 29.396C58.2825 29.5745 58.5214 29.5074 58.5391 29.3558C58.61 28.4544 58.7674 27.5619 59.0092 26.6907C59.1838 26.1148 60.3323 24.4688 60.7654 23.1296C60.9009 22.6379 60.8869 22.117 60.7252 21.6332C60.6214 21.3118 60.4052 21.0386 60.1162 20.8638C59.8272 20.6889 59.4849 20.6241 59.152 20.6813C58.9988 20.0519 58.038 19.5304 57.1151 19.9011C56.8038 19.3554 56.0349 19.234 55.4232 19.2577C54.6491 19.2887 54.2168 19.955 54.1959 20.6894C54.1468 22.3732 56.5686 22.2095 57.8531 21.8287Z" fill="#191919"/>
<path d="M44.5864 18.5845C43.6284 18.4815 43.6272 17.109 43.6119 16.3936C43.5959 15.6214 43.8154 14.8762 43.8106 14.1117C43.8095 14.0705 43.7951 14.0307 43.7696 13.9983C43.7441 13.9658 43.7088 13.9425 43.669 13.9317C43.6292 13.9209 43.587 13.9233 43.5486 13.9384C43.5102 13.9535 43.4777 13.9806 43.4559 14.0156C42.9235 15.0009 42.5712 19.3417 44.6298 18.9034C44.8252 18.862 44.7581 18.603 44.5864 18.5845Z" fill="#191919"/>
<path d="M44.4204 16.2665C44.5813 15.3178 44.9215 14.4142 45.09 13.4768C45.0997 13.4356 45.0945 13.3924 45.0754 13.3547C45.0563 13.317 45.0245 13.2873 44.9856 13.2708C44.9466 13.2543 44.9032 13.2522 44.8628 13.2647C44.8224 13.2772 44.7878 13.3036 44.765 13.3392C44.2888 14.2247 44.0631 15.2233 44.1123 16.2275C44.1107 16.4004 44.3902 16.4463 44.4204 16.2665Z" fill="#191919"/>
<path d="M45.9669 13.116C45.2741 13.9781 44.9144 15.0606 44.9535 16.166C44.9539 16.2054 44.9685 16.2433 44.9945 16.2728C45.0206 16.3024 45.0564 16.3216 45.0954 16.3269C45.1345 16.3322 45.1741 16.3233 45.2071 16.3018C45.2401 16.2803 45.2643 16.2476 45.2752 16.2098C45.4325 15.7172 45.5463 15.212 45.714 14.7218C45.8817 14.2316 46.1 13.7695 46.2307 13.2709C46.238 13.2377 46.2346 13.2031 46.221 13.172C46.2074 13.1409 46.1843 13.1149 46.155 13.0977C46.1258 13.0805 46.0918 13.073 46.058 13.0763C46.0242 13.0796 45.9923 13.0935 45.9669 13.116Z" fill="#191919"/>
<path d="M47.9475 13.4731C48.0528 13.3207 47.8514 13.1594 47.7086 13.2342C46.6787 13.7743 46.0827 15.0982 45.8587 16.1784C45.851 16.2139 45.8572 16.251 45.8761 16.2821C45.8949 16.3131 45.9249 16.3358 45.96 16.3454C45.995 16.355 46.0324 16.3508 46.0644 16.3336C46.0965 16.3165 46.1207 16.2877 46.1321 16.2532C46.7752 14.5976 47.4524 14.1898 47.9475 13.4731Z" fill="#191919"/>
<path d="M48.1144 15.5555C47.1536 15.8716 46.4535 17.0684 46.2363 18.0086C46.2264 18.0525 46.2342 18.0986 46.2582 18.1367C46.2822 18.1747 46.3203 18.2017 46.3642 18.2117C46.6119 18.268 46.577 17.9004 47.4098 16.8444C47.7288 16.5121 48.0228 16.1567 48.2893 15.7811C48.3035 15.7545 48.3097 15.7243 48.3071 15.6942C48.3046 15.6642 48.2934 15.6355 48.2749 15.6117C48.2564 15.5878 48.2314 15.5698 48.2029 15.5599C48.1745 15.5499 48.1437 15.5484 48.1144 15.5555Z" fill="#191919"/>
<path d="M66.8147 50.2541C66.7514 50.4752 66.7634 50.7111 66.8488 50.9247C66.9342 51.1383 67.0881 51.3174 67.2864 51.434C68.1056 51.9061 69.3479 51.7891 70.2318 51.6101C71.0799 51.4384 71.7938 51.1569 71.7938 50.1785C71.7148 49.1227 71.2557 48.1315 70.5016 47.3883C70.4568 47.3461 70.3983 47.3212 70.3368 47.3182C70.2753 47.3152 70.2146 47.3342 70.1659 47.3718C70.1171 47.4095 70.0833 47.4633 70.0706 47.5236C70.058 47.5839 70.0672 47.6467 70.0967 47.7008C70.4212 48.3326 70.9114 48.8373 71.1153 49.5391C71.199 49.8258 71.3208 50.3458 71.1342 50.6313C70.9476 50.9168 70.3906 50.9932 70.0798 51.0568C69.3775 51.2068 68.6517 51.2094 67.9484 51.0644C66.8951 50.8396 67.4807 49.9384 67.4529 49.2197C67.452 49.1851 67.4389 49.152 67.4158 49.1261C67.3927 49.1003 67.3613 49.0835 67.327 49.0786C67.2927 49.0738 67.2578 49.0813 67.2285 49.0998C67.1992 49.1182 67.1774 49.1465 67.167 49.1795C67.1091 49.3179 67.0463 49.4719 66.9852 49.6328C66.3418 49.7208 66.6233 48.9893 66.7262 48.7118C66.845 48.3879 66.9984 48.0778 67.1839 47.7869C67.2707 47.6517 67.0845 47.5339 66.9752 47.626C66.4499 48.0648 65.8893 48.8091 65.9899 49.5423C66.0426 49.9295 66.4592 50.3257 66.8147 50.2541Z" fill="#191919"/>
<path d="M75.7826 71.3338C75.7625 71.3036 71.8279 66.2719 70.3536 63.6337C67.0527 57.7173 65.5639 52.6549 64.5851 50.5187C64.5284 50.3948 64.3518 50.4873 64.3756 50.6068C64.8155 52.8399 66.5327 57.0666 67.4633 59.1517C69.1459 62.9219 72.2397 68.6755 75.2192 71.2163C74.7688 71.7518 74.1701 72.142 73.4984 72.3379C72.3241 71.1942 67.5099 68.0623 61.7238 58.9096C60.6403 57.1957 59.713 55.4234 58.6774 53.7013C58.6103 53.59 58.4064 53.6631 58.4542 53.793C59.5501 56.7794 61.4595 59.6777 63.3143 62.3231C63.2552 62.4872 62.9793 63.7025 62.9793 63.7025C61.3343 63.671 59.6945 63.5072 58.0758 63.2127C56.4532 62.9007 54.8706 62.4078 53.3577 61.7432C51.5718 61.0012 51.4495 60.5183 51.5328 57.297C51.6106 55.449 51.8651 53.6127 52.2928 51.8132C52.2985 51.7928 52.3001 51.7714 52.2975 51.7504C52.2949 51.7294 52.2881 51.709 52.2777 51.6906C52.2672 51.6721 52.2532 51.6559 52.2365 51.6429C52.2198 51.6298 52.2007 51.6202 52.1802 51.6146C52.1598 51.6089 52.1385 51.6074 52.1174 51.61C52.0964 51.6126 52.076 51.6193 52.0576 51.6297C52.0391 51.6402 52.0229 51.6542 52.0099 51.6709C51.9969 51.6876 51.9872 51.7067 51.9816 51.7272C51.3234 53.655 50.9758 55.6751 50.9517 57.712C50.9187 60.0325 50.9159 61.251 52.5486 62.0219C55.5217 63.425 59.908 64.5088 63.0923 64.0886C63.4034 65.7249 63.5176 67.3925 63.4325 69.056C63.4348 69.1096 63.4523 69.1615 63.4831 69.2055C63.5139 69.2495 63.5566 69.2838 63.6063 69.3043C63.6559 69.3248 63.7104 69.3307 63.7632 69.3212C63.8161 69.3118 63.8652 69.2874 63.9046 69.251C64.9048 68.1477 65.4765 66.7226 65.5161 65.2339C68.6247 69.0853 72.162 72.1405 73.2085 72.7666C73.2085 72.7731 72.9631 75.519 71.3236 76.043C71.1748 76.0724 71.0335 76.1318 70.9084 76.2175C70.7832 76.3033 70.6768 76.4135 70.5957 76.5417C70.2249 77.2704 74.4692 77.1244 74.4829 77.1175C74.9128 76.9024 76.3227 72.1357 75.7826 71.3338Z" fill="#191919"/>
<path d="M57.3086 53.0857C57.0595 54.8806 56.6371 56.6472 56.0474 58.3607C56.029 58.4341 56.0396 58.5118 56.0771 58.5775C56.1145 58.6432 56.176 58.6919 56.2485 58.7134C57.9818 59.2434 59.5956 60.1137 61.3157 60.6518C61.4838 60.7045 61.5533 60.4776 61.4271 60.3851C60.3252 59.5768 57.8764 58.6157 56.6788 58.2445C57.1739 56.5775 57.4764 54.8593 57.5805 53.1235C57.5901 52.9682 57.3295 52.9284 57.3086 53.0857Z" fill="#191919"/>
<path d="M40.8254 13.8214C40.7972 13.7948 40.7612 13.7781 40.7227 13.7737C40.6843 13.7693 40.6454 13.7774 40.6119 13.7968C40.5785 13.8162 40.5521 13.8459 40.5369 13.8815C40.5217 13.9171 40.5183 13.9567 40.5274 13.9943C40.7084 14.7142 41.2207 15.3311 41.1515 16.696C41.1065 17.6179 40.7965 18.5072 40.2587 19.2573C40.1413 19.4182 40.4067 19.6253 40.5366 19.4716C41.2102 18.7277 41.6247 17.7857 41.7182 16.7865C41.7942 15.8221 41.5838 14.5018 40.8254 13.8214Z" fill="#191919"/>
<path d="M40.1921 16.166C40.1988 16.2054 40.2193 16.2413 40.2499 16.2671C40.2806 16.293 40.3193 16.3071 40.3594 16.3071C40.3995 16.3071 40.4382 16.293 40.4689 16.2671C40.4995 16.2413 40.52 16.2054 40.5267 16.166C40.5762 15.0958 40.3803 13.6686 39.5213 12.9029C39.4951 12.8784 39.4618 12.8631 39.4262 12.8591C39.3906 12.8551 39.3546 12.8627 39.3237 12.8808C39.2928 12.8988 39.2685 12.9264 39.2544 12.9593C39.2404 12.9923 39.2374 13.0289 39.2458 13.0637C39.4775 13.8371 40.0445 14.4689 40.1921 16.166Z" fill="#191919"/>
<path d="M39.2566 15.8728C39.2807 16.096 39.6238 16.1112 39.6214 15.8728C39.6101 14.7978 39.3189 13.1687 38.3055 12.5751C38.2759 12.5586 38.2421 12.5512 38.2083 12.5537C38.1745 12.5561 38.1421 12.5685 38.1152 12.5891C38.0883 12.6098 38.0681 12.6378 38.0569 12.6699C38.0458 12.7019 38.0443 12.7365 38.0526 12.7694C38.3264 13.5001 39.0628 14.0884 39.2566 15.8728Z" fill="#191919"/>
<path d="M37.9187 14.5646C38.4886 16.2303 38.123 16.7201 38.4387 16.7193C38.4774 16.7193 38.5145 16.7039 38.5419 16.6765C38.5693 16.6492 38.5847 16.612 38.5847 16.5733C38.6669 15.8526 38.6027 15.1227 38.3961 14.4274C38.2442 13.7535 37.9076 13.1352 37.4241 12.6419C37.2861 12.5289 36.9917 12.6306 37.077 12.8429C37.3175 13.4426 37.7068 13.9465 37.9187 14.5646Z" fill="#191919"/>
<path d="M37.7856 18.521C37.8117 18.6565 38.0293 18.6247 38.0269 18.4884C37.9995 17.4315 37.6802 16.1201 36.7046 15.541C36.6685 15.5209 36.6267 15.5131 36.5858 15.5188C36.5448 15.5246 36.5068 15.5436 36.4776 15.5729C36.4485 15.6022 36.4297 15.6403 36.4241 15.6813C36.4185 15.7223 36.4265 15.7639 36.4468 15.8C36.7798 16.3863 37.5069 17.066 37.7856 18.521Z" fill="#191919"/>
<path d="M40.0802 19.8042C39.8898 20.2714 39.7728 20.7652 39.7331 21.2681C39.3791 22.8983 38.7702 24.4625 37.9286 25.9029C36.8299 27.8734 33.3529 30.9383 33.3529 30.9383C33.3529 30.9383 32.6291 29.5553 32.5205 26.887C34.8483 25.5922 36.6724 23.5512 37.6986 21.0931C38.0139 20.4491 38.2179 19.7563 38.3018 19.0442C38.3131 18.8053 37.9286 18.6802 37.8285 18.9159C37.4843 19.7266 36.9035 23.0697 33.472 25.5973C31.5395 26.9908 29.242 27.7894 26.8618 27.8948C26.8919 27.635 26.8618 27.372 26.8855 27.1138C26.9092 26.8556 26.9659 26.5681 27.0082 26.2946C29.1146 25.8643 29.3764 22.1524 27.8495 20.5941C27.6991 20.44 27.4823 20.6343 27.568 20.812C28.0739 21.8826 28.4728 22.8884 28.2568 24.1004C28.1989 24.7102 27.9058 25.2735 27.4397 25.6709C27.1551 25.8474 26.8189 25.9215 26.4865 25.8809C26.1541 25.8403 25.8456 25.6875 25.6119 25.4477C25.5109 25.3532 25.3272 25.4778 25.4108 25.6017C25.5469 25.8238 25.7374 26.0074 25.9644 26.1352C26.1914 26.2629 26.4473 26.3305 26.7077 26.3316C26.5091 26.8343 26.4701 27.386 26.5959 27.9117C26.1472 27.9257 25.698 27.9112 25.2511 27.8682C25.0284 27.8449 22.6142 28.0355 21.5252 28.7228C20.967 28.6548 19.3512 29.3031 18.9003 29.5271C17.5283 30.2069 16.2735 31.1013 15.1832 32.1765C14.9588 32.3989 14.588 32.6812 14.6086 33.0371C14.6802 33.3509 14.868 33.6258 15.1342 33.8068C13.9888 34.819 13.1262 36.3983 13.3808 37.9205C13.6856 39.7426 15.3055 41.3235 16.8928 42.1523C16.9325 42.1741 16.9786 42.1809 17.0229 42.1716C17.0672 42.1623 17.1068 42.1375 17.1344 42.1016C17.162 42.0658 17.1759 42.0212 17.1735 41.976C17.1712 41.9308 17.1528 41.8879 17.1216 41.8551C15.9578 40.6265 14.4216 39.807 13.9969 38.0318C13.6056 36.3979 14.6295 35.3069 15.4688 34.0907C15.8892 34.5307 16.3549 34.925 16.8582 35.267C16.8934 35.2861 16.9338 35.2933 16.9735 35.2875C17.0131 35.2817 17.0498 35.2633 17.078 35.2349C17.1063 35.2065 17.1246 35.1697 17.1302 35.1301C17.1358 35.0904 17.1284 35.05 17.1091 35.0149C16.8892 34.6256 15.2218 33.0528 15.2612 32.8887C15.3256 32.6197 16.8506 31.3903 17.2221 31.1192C18.3307 30.3129 19.5497 29.6706 20.8415 29.2122C19.8344 30.008 19.0343 31.0351 18.509 32.2063C17.8592 33.6709 17.7281 35.2892 17.6782 36.874C17.3943 45.8823 16.4979 45.1962 15.7989 47.4221C15.7865 47.4519 15.0179 50.6651 14.9061 51.1324C13.2654 56.6793 12.2117 60.2697 9.56756 66.1066C8.19622 69.1332 7.50129 70.2713 6.88238 71.6997C6.78546 71.9229 7.19164 72.5141 8.34984 72.8459C8.68483 72.942 9.73244 72.8459 10.0329 72.4687C10.3333 72.0914 11.7726 70.1868 12.5938 69.0628C13.5991 67.6891 19.2076 59.1043 20.6288 55.986C21.3527 54.3987 22.3323 51.0073 22.5258 50.8915C22.5993 50.8477 22.6934 50.9317 22.7192 51.0122C22.7449 51.0926 22.3355 52.8424 22.1522 53.6326C22.0399 54.1152 21.8811 55.195 22.0404 55.4049C22.4004 55.8296 22.7889 56.2292 23.2034 56.6009C22.3389 56.9158 21.5045 57.3075 20.71 57.7716C19.7577 58.4637 18.9928 59.8225 18.3989 60.8195C18.1885 61.1722 17.1948 63.1118 17.0287 63.4978C17.0038 63.5412 16.9894 63.5898 16.9866 63.6397C16.9838 63.6896 16.9926 63.7395 17.0125 63.7854C17.0323 63.8313 17.0626 63.872 17.1008 63.9042C17.1391 63.9363 17.1844 63.9591 17.233 63.9707C18.766 63.8875 20.3408 63.3744 21.7995 62.9252C23.4004 62.4375 24.9632 61.8326 26.4753 61.1155C27.7839 60.4901 29.2373 59.7461 30.1212 58.5566C31.2706 57.0087 27.7513 47.3839 26.4508 47.1535C26.339 47.1338 24.7661 48.9491 18.4917 47.9928C17.7679 47.8822 17.1916 47.4113 16.4951 47.2062C17.5004 45.7854 17.7168 43.9274 17.9179 42.2569C18.5211 37.2517 17.6364 33.5527 20.1466 30.6696C21.4168 29.2254 23.1919 28.3224 25.1072 28.1461C25.1494 28.1461 27.097 29.2106 32.1903 27.0699C32.1428 27.9142 32.2035 28.761 32.3709 29.5898C32.4646 30.0491 32.9693 31.7349 33.2315 32.0205C31.47 33.4891 30.3456 33.8301 29.2751 34.4298C29.2324 34.4761 29.2018 34.5321 29.1858 34.593C28.9417 36.077 26.7825 45.0213 26.5972 45.9454C26.5848 46.0108 26.5975 46.0784 26.6327 46.1348C26.6679 46.1912 26.723 46.2323 26.7871 46.2498C26.8513 46.2674 26.9197 46.2602 26.9787 46.2297C27.0378 46.1991 27.0832 46.1475 27.1059 46.085C27.4553 45.1516 29.5108 35.604 29.4492 34.7233C31.0743 34.4418 32.576 33.3045 33.6566 32.1242C33.737 32.0353 33.5717 31.4892 33.4756 31.2596C33.5158 31.2905 37.1698 28.2527 38.3682 26.2729C38.9594 25.2952 39.4432 24.2564 39.8111 23.1747C39.9957 22.6334 40.5865 20.3797 40.4381 19.867C40.4279 19.8303 40.4076 19.7972 40.3795 19.7716C40.3513 19.746 40.3164 19.729 40.279 19.7224C40.2415 19.7158 40.2029 19.72 40.1677 19.7345C40.1325 19.749 40.1022 19.7732 40.0802 19.8042Z" fill="#191919"/>
<path d="M27.2532 23.6866C27.4905 23.8579 28.1323 24.1326 28.2119 23.6464C28.2469 23.4329 27.7716 22.4995 27.6184 22.269C27.5476 22.1633 27.3437 22.2288 27.3952 22.3619C27.5041 22.6434 27.7623 23.4542 27.7571 23.4622C27.7519 23.4703 27.5243 23.3637 27.4036 23.3263C27.1776 23.2551 27.0819 23.5632 27.2532 23.6866Z" fill="#191919"/>
<path d="M26.3982 22.7613C26.4563 22.5799 26.4563 22.3849 26.3982 22.2035C26.386 22.1643 26.3616 22.13 26.3286 22.1057C26.2956 22.0814 26.2556 22.0683 26.2146 22.0683C26.1736 22.0683 26.1336 22.0814 26.1006 22.1057C26.0676 22.13 26.0432 22.1643 26.031 22.2035C25.9729 22.3849 25.9729 22.5799 26.031 22.7613C26.0498 22.7932 26.0767 22.8197 26.1089 22.8381C26.1411 22.8564 26.1775 22.8661 26.2146 22.8661C26.2517 22.8661 26.2881 22.8564 26.3203 22.8381C26.3525 22.8197 26.3793 22.7932 26.3982 22.7613Z" fill="#191919"/>
<path d="M25.7454 21.9803C26.0149 21.5021 26.3696 21.5061 26.5602 21.3151C26.5786 21.2962 26.5918 21.2728 26.5985 21.2473C26.6052 21.2218 26.6051 21.1949 26.5984 21.1694C26.5916 21.1439 26.5783 21.1206 26.5599 21.1017C26.5414 21.0828 26.5184 21.0691 26.493 21.0618C26.0213 20.9648 25.6413 21.5065 25.4957 21.8765C25.4418 22.0133 25.6743 22.1074 25.7454 21.9803Z" fill="#191919"/>
<path d="M25.5971 23.8772C25.8609 24.85 26.8361 25.3021 27.3034 24.9767C27.3333 24.9577 27.3571 24.9305 27.3721 24.8984C27.3871 24.8663 27.3926 24.8306 27.3881 24.7954C27.3835 24.7603 27.369 24.7272 27.3464 24.7C27.3237 24.6727 27.2937 24.6525 27.26 24.6417C26.9654 24.6245 26.678 24.5439 26.4174 24.4053C26.1885 24.211 25.9785 23.9956 25.7901 23.7618C25.7748 23.7362 25.7499 23.7178 25.721 23.7105C25.6921 23.7032 25.6615 23.7077 25.6359 23.723C25.6103 23.7383 25.5918 23.7632 25.5845 23.7921C25.5772 23.821 25.5817 23.8516 25.5971 23.8772Z" fill="#191919"/>
</svg>
